<svg xmlns="http://www.w3.org/2000/svg" width="33" height="32"><path fill="#95e1d3" d="M24.755 12.761c0 .641-.52 1.16-1.16 1.16-.306 0-.582-.12-.789-.313l-.002.003L12.378 3.186 1.975 13.588a1.16 1.16 0 11-1.618-1.663L11.542.739c.211-.219.507-.356.836-.356h.001c.02 0 .04 0 .061.002l.009.001a.945.945 0 01.056.005c.284.031.537.164.722.362l.001-.001 4.566 4.566V4.252a1.16 1.16 0 112.32 0v3.387l4.331 4.331-.003.003c.193.207.314.483.314.789zm-2.321 1.934v8.123c0 .641-.52 1.16-1.16 1.16h-2.321v-9.283h-4.642v9.283H3.481a1.16 1.16 0 01-1.16-1.16v-8.123L12.378 4.638l10.057 10.057zm-11.99 0H5.802v4.642h4.642v-4.642z"/></svg>