<!-- Generated by IcoMoon.io -->
<svg version="1.1" xmlns="http://www.w3.org/2000/svg" width="33" height="32" viewBox="0 0 33 32">
<path fill="#95e1d3" d="M23.031 6.637c-1.187-2.769-3.407-4.99-6.176-6.176 0.749-0.59 1.692-0.944 2.719-0.944 2.43 0 4.401 1.97 4.401 4.401 0 1.027-0.354 1.97-0.944 2.719zM22.851 11.505c0 2.886-1.133 5.501-2.969 7.447l1.52 1.519c0.201 0.202 0.325 0.479 0.325 0.786 0 0.614-0.497 1.111-1.111 1.111-0.307 0-0.585-0.124-0.786-0.326l-1.632-1.632c-1.761 1.23-3.9 1.958-6.211 1.958-2.307 0-4.441-0.724-6.2-1.95l-1.621 1.621c-0.204 0.204-0.485 0.33-0.795 0.33-0.62 0-1.124-0.503-1.124-1.125 0-0.309 0.126-0.591 0.329-0.794l1.507-1.507c-1.83-1.944-2.96-4.557-2.96-7.437 0-6 4.864-10.864 10.864-10.864s10.864 4.864 10.864 10.864zM11.987 2.889c-4.758 0-8.616 3.857-8.616 8.616s3.858 8.616 8.616 8.616 8.616-3.858 8.616-8.616c0-4.759-3.858-8.616-8.616-8.616zM16.483 12.629h-4.495c-0.62 0-1.124-0.503-1.124-1.124v-5.994c0-0.62 0.503-1.124 1.124-1.124s1.124 0.503 1.124 1.124v4.869h3.371c0.62 0 1.124 0.503 1.124 1.125s-0.503 1.124-1.124 1.124zM0.964 6.788c-0.602-0.764-0.964-1.727-0.964-2.776 0-2.483 2.012-4.495 4.495-4.495 1.049 0 2.012 0.362 2.777 0.964-2.828 1.211-5.096 3.479-6.308 6.307z"></path>
</svg>
