<!-- Generated by IcoMoon.io -->
<svg version="1.1" xmlns="http://www.w3.org/2000/svg" width="16" height="32" viewBox="0 0 16 32">
<title>facebook</title>
<path fill="#f38181" d="M11.164 0.184c0 1.363 0 3.806 0 3.806s-2.805-0.28-3.508 0.795c-0.384 0.587-0.156 2.309-0.19 3.544 1.225 0 2.496 0 3.721 0-0.314 1.444-0.539 2.423-0.771 3.674-1.059 0-2.97 0-2.97 0v11.825c0 0-3.507 0-5.155 0 0.001-3.645-0.001-7.898 0-11.779-0.801 0-1.393 0-2.193 0 0-1.363 0-2.356 0-3.72 0.777 0 1.392 0 2.169 0 0.111-2.721 0.152-5.416 1.504-6.788 1.518-1.543 2.967-1.358 7.393-1.358z"></path>
</svg>
