<!-- Generated by IcoMoon.io -->
<svg version="1.1" xmlns="http://www.w3.org/2000/svg" width="32" height="32" viewBox="0 0 32 32">
<title>instagram</title>
<path fill="#f38181" d="M20.964 23.827h-17.732c-1.632 0-2.955-1.323-2.955-2.956v-17.731c0-1.633 1.323-2.956 2.955-2.956h17.732c1.632 0 2.955 1.323 2.955 2.956v17.731c0 1.633-1.323 2.956-2.955 2.956zM12.098 7.424c-1.843 0-3.427 1.092-4.154 2.66h-0.005c-0.007 0.017-0.013 0.034-0.020 0.051-0.043 0.097-0.081 0.197-0.118 0.296-0.018 0.049-0.037 0.096-0.053 0.144-0.034 0.103-0.062 0.208-0.088 0.314-0.013 0.049-0.028 0.098-0.039 0.148-0.024 0.112-0.041 0.225-0.056 0.34-0.006 0.046-0.016 0.091-0.021 0.139-0.017 0.161-0.027 0.324-0.027 0.49 0 2.53 2.051 4.58 4.581 4.58s4.581-2.050 4.581-4.58c0-0.166-0.010-0.33-0.027-0.49-0.006-0.047-0.015-0.092-0.021-0.139-0.016-0.115-0.032-0.228-0.056-0.34-0.011-0.050-0.026-0.099-0.039-0.148-0.026-0.106-0.054-0.211-0.088-0.314-0.016-0.048-0.035-0.095-0.053-0.144-0.037-0.1-0.075-0.199-0.118-0.296-0.007-0.017-0.013-0.034-0.020-0.051h-0.005c-0.727-1.568-2.311-2.66-4.154-2.66zM21.259 4.026c0-0.653-0.529-1.181-1.182-1.181h-2.364c-0.653 0-1.182 0.528-1.182 1.181v2.365c0 0.653 0.529 1.182 1.182 1.182h2.364c0.653 0 1.182-0.529 1.182-1.182v-2.365zM21.259 10.084h-2.18c0.168 0.612 0.259 1.257 0.259 1.922 0 3.999-3.242 7.239-7.24 7.239s-7.24-3.241-7.24-7.239c0-0.665 0.090-1.31 0.259-1.922h-2.179v9.9c0 0.654 0.529 1.183 1.182 1.183h15.958c0.653 0 1.182-0.529 1.182-1.183v-9.9z"></path>
</svg>
