<!-- Generated by IcoMoon.io -->
<svg version="1.1" xmlns="http://www.w3.org/2000/svg" width="32" height="32" viewBox="0 0 32 32">
<path fill="#95e1d3" d="M22.904 24.030h-21.778c-0.622 0-1.126-0.505-1.126-1.126v-21.778c0-0.621 0.505-1.126 1.126-1.126h21.778c0.622 0 1.126 0.505 1.126 1.126v21.778c0 0.622-0.505 1.126-1.126 1.126zM21.778 2.253h-19.525v19.525h19.525v-19.525zM3.916 12.195v-0.002l3.004-1.876c0.172-0.106 0.373-0.167 0.59-0.167 0.234 0 0.451 0.071 0.631 0.193l0.005-0.006 4.98 3.319 5.736-4.048c0.186-0.137 0.416-0.218 0.665-0.218 0.622 0 1.126 0.505 1.126 1.126 0 0.375-0.184 0.708-0.467 0.913h0.001l-6.384 4.506c-0.185 0.134-0.413 0.213-0.659 0.213-0.241 0-0.464-0.076-0.647-0.204l-4.999-3.333-2.354 1.472c-0.181 0.124-0.4 0.197-0.636 0.197-0.622 0-1.126-0.505-1.126-1.126 0-0.406 0.215-0.761 0.537-0.96z"></path>
</svg>
