<svg aria-hidden="true" style="position: absolute; width: 0; height: 0; overflow: hidden;" version="1.1" xmlns="http://www.w3.org/2000/svg" xmlns:xlink="http://www.w3.org/1999/xlink">
<defs>
<symbol id="facebook" viewBox="0 0 16 32">
<path fill="#f38181" style="fill: var(--color1, #f38181)" d="M11.164 0.184c0 1.363 0 3.806 0 3.806s-2.805-0.28-3.508 0.795c-0.384 0.587-0.156 2.309-0.19 3.544 1.225 0 2.496 0 3.721 0-0.314 1.444-0.539 2.423-0.771 3.674-1.059 0-2.97 0-2.97 0v11.825c0 0-3.507 0-5.155 0 0.001-3.645-0.001-7.898 0-11.779-0.801 0-1.393 0-2.193 0 0-1.363 0-2.356 0-3.72 0.777 0 1.392 0 2.169 0 0.111-2.721 0.152-5.416 1.504-6.788 1.518-1.543 2.967-1.358 7.393-1.358z"></path>
</symbol>
<symbol id="instagram" viewBox="0 0 32 32">
<path fill="#f38181" style="fill: var(--color1, #f38181)" d="M20.964 23.827h-17.732c-1.632 0-2.955-1.323-2.955-2.956v-17.731c0-1.633 1.323-2.956 2.955-2.956h17.732c1.632 0 2.955 1.323 2.955 2.956v17.731c0 1.633-1.323 2.956-2.955 2.956zM12.098 7.424c-1.843 0-3.427 1.092-4.154 2.66h-0.005c-0.007 0.017-0.013 0.034-0.020 0.051-0.043 0.097-0.081 0.197-0.118 0.296-0.018 0.049-0.037 0.096-0.053 0.144-0.034 0.103-0.062 0.208-0.088 0.314-0.013 0.049-0.028 0.098-0.039 0.148-0.024 0.112-0.041 0.225-0.056 0.34-0.006 0.046-0.016 0.091-0.021 0.139-0.017 0.161-0.027 0.324-0.027 0.49 0 2.53 2.051 4.58 4.581 4.58s4.581-2.050 4.581-4.58c0-0.166-0.010-0.33-0.027-0.49-0.006-0.047-0.015-0.092-0.021-0.139-0.016-0.115-0.032-0.228-0.056-0.34-0.011-0.050-0.026-0.099-0.039-0.148-0.026-0.106-0.054-0.211-0.088-0.314-0.016-0.048-0.035-0.095-0.053-0.144-0.037-0.1-0.075-0.199-0.118-0.296-0.007-0.017-0.013-0.034-0.020-0.051h-0.005c-0.727-1.568-2.311-2.66-4.154-2.66zM21.259 4.026c0-0.653-0.529-1.181-1.182-1.181h-2.364c-0.653 0-1.182 0.528-1.182 1.181v2.365c0 0.653 0.529 1.182 1.182 1.182h2.364c0.653 0 1.182-0.529 1.182-1.182v-2.365zM21.259 10.084h-2.18c0.168 0.612 0.259 1.257 0.259 1.922 0 3.999-3.242 7.239-7.24 7.239s-7.24-3.241-7.24-7.239c0-0.665 0.090-1.31 0.259-1.922h-2.179v9.9c0 0.654 0.529 1.183 1.182 1.183h15.958c0.653 0 1.182-0.529 1.182-1.183v-9.9z"></path>
</symbol>
<symbol id="pinterest" viewBox="0 0 26 32">
<path fill="#f38181" style="fill: var(--color1, #f38181)" d="M8.36 15.565c-0.193 0.769-0.388 1.576-0.589 2.364-0.199 0.778-0.374 1.566-0.663 2.281-0.479 1.183-1.088 2.326-1.887 3.252-0.531 0.616-0.418 0.37-0.578 0.337-0.122-0.026-0.132-0.145-0.156-0.319-0.13-0.94-0.042-2.027 0.006-3.084 0.055-1.204 0.308-2.205 0.544-3.206 0.447-1.906 0.874-3.774 1.325-5.693 0.030-0.127 0.111-0.338 0.083-0.411-0.205-0.533-0.338-1.011-0.396-1.571-0.067-0.642-0.016-1.241 0.128-1.794 0.256-0.977 0.843-1.842 1.749-2.159 0.576-0.199 1.214-0.109 1.602 0.122 0.399 0.239 0.673 0.616 0.801 1.151 0.137 0.568 0.036 1.248-0.074 1.746-0.247 1.126-0.571 1.971-0.865 3.057-0.146 0.538-0.311 1.092-0.175 1.673 0.126 0.534 0.404 0.901 0.782 1.178 0.393 0.286 0.859 0.442 1.501 0.42 1.134-0.040 1.922-0.765 2.448-1.448 0.843-1.094 1.353-2.571 1.547-4.328 0.062-0.567 0.108-1.218 0.065-1.86-0.081-1.186-0.452-2.14-1.041-2.879-0.56-0.705-1.354-1.264-2.32-1.58-0.958-0.312-2.283-0.417-3.46-0.215-2.141 0.367-3.65 1.583-4.539 3.263-0.465 0.879-0.773 1.89-0.773 3.149 0 0.971 0.239 1.722 0.626 2.309 0.123 0.186 0.303 0.339 0.423 0.551 0.171 0.301-0.026 0.749-0.11 1.075-0.102 0.393-0.113 0.935-0.571 0.944-0.19 0.004-0.429-0.135-0.589-0.224-1.205-0.666-1.937-1.878-2.237-3.448-0.183-0.955-0.182-2.068 0-2.99 0.175-0.893 0.502-1.716 0.865-2.384 0.752-1.388 1.853-2.498 3.194-3.291 1.031-0.61 2.193-1.037 3.608-1.243 0.469-0.068 0.955-0.097 1.482-0.122 1.54-0.072 2.941 0.277 3.995 0.748 1.113 0.498 2.001 1.16 2.752 1.982 0.774 0.845 1.337 1.828 1.694 3.056 0.187 0.639 0.368 1.322 0.368 2.112 0 0.792-0.167 1.49-0.284 2.187-0.438 2.612-1.68 4.748-3.544 5.964-0.452 0.294-0.998 0.566-1.62 0.747-0.616 0.179-1.319 0.314-2.071 0.261-0.73-0.050-1.329-0.248-1.831-0.533-0.499-0.282-0.918-0.627-1.215-1.149z"></path>
</symbol>
<symbol id="twitter" viewBox="0 0 38 32">
<path fill="#f38181" style="fill: var(--color1, #f38181)" d="M19.081 0.653c2.216-0.039 3.396 0.768 4.523 1.794 0.957-0.082 2.2-0.616 2.932-0.988 0.236-0.129 0.474-0.259 0.711-0.389-0.418 1.13-0.985 2.014-1.857 2.687-0.194 0.148-0.386 0.35-0.629 0.445 0 0.004 0 0.010 0 0.014 1.242-0.012 2.266-0.573 3.239-0.877 0 0.004 0 0.010 0 0.014-0.511 0.812-1.203 1.636-1.94 2.227-0.297 0.236-0.596 0.473-0.893 0.709 0.016 1.315-0.020 2.57-0.265 3.675-1.429 6.423-5.217 10.783-11.21 12.651-2.153 0.67-5.631 0.946-8.097 0.333-1.222-0.303-2.327-0.646-3.363-1.099-0.576-0.252-1.11-0.524-1.62-0.836-0.168-0.101-0.334-0.204-0.502-0.305 0.556 0.016 1.207 0.17 1.828 0.069 0.563-0.090 1.115-0.066 1.634-0.18 1.294-0.284 2.444-0.66 3.433-1.24 0.48-0.281 1.209-0.61 1.55-1.015-0.643 0.011-1.226-0.138-1.703-0.306-1.851-0.654-2.929-1.855-3.63-3.661 0.561 0.062 2.177 0.208 2.555-0.111-0.706-0.039-1.385-0.448-1.871-0.752-1.489-0.932-2.703-2.494-2.694-4.898 0.196 0.093 0.391 0.185 0.586 0.278 0.375 0.158 0.755 0.242 1.201 0.334 0.188 0.039 0.565 0.149 0.782 0.069-0.010 0-0.019 0-0.028 0-0.288-0.334-0.757-0.558-1.047-0.918-0.956-1.186-1.85-3.014-1.285-5.19 0.144-0.552 0.372-1.039 0.614-1.489 0.010 0.004 0.019 0.009 0.028 0.013 0.111 0.233 0.36 0.404 0.516 0.599 0.488 0.605 1.089 1.148 1.703 1.628 2.090 1.634 3.971 2.639 6.994 3.382 0.767 0.19 1.653 0.333 2.569 0.334-0.257-0.748-0.174-1.961 0.027-2.686 0.51-1.824 1.616-3.137 3.239-3.842 0.388-0.168 0.818-0.291 1.27-0.39 0.233-0.027 0.465-0.056 0.698-0.083z"></path>
</symbol>
</defs>
</svg>
