<svg xmlns="http://www.w3.org/2000/svg" width="32" height="32"><path fill="#95e1d3" d="M23.328 19.441l-10.867 4.497a1.126 1.126 0 01-.892 0L.702 19.441A1.125 1.125 0 010 18.398V1.126A1.126 1.126 0 011.556.086h.001l.002.001.01.004 10.447 4.322L22.463.091l.01-.004.002-.001a1.126 1.126 0 011.556 1.04v17.272c0 .472-.291.876-.702 1.043zM10.889 6.385L2.253 2.811v14.834l8.636 3.574V6.385zm10.889-3.573l-8.636 3.574V21.22l8.636-3.574V2.812zm-6.85 5.174l4.13-1.877a1.126 1.126 0 11.932 2.05l-4.13 1.877a1.126 1.126 0 01-.932-2.051zm0 4.13l4.13-1.877a1.126 1.126 0 11.932 2.051l-4.13 1.877a1.126 1.126 0 01-.932-2.051zm0 4.13l4.13-1.877a1.126 1.126 0 11.932 2.05l-4.13 1.877a1.126 1.126 0 01-.932-2.051zM4.506 6.008c.166 0 .324.036.466.101l4.13 1.877a1.127 1.127 0 01-.932 2.051L4.04 8.16a1.126 1.126 0 01.466-2.151zm0 4.13c.166 0 .324.036.466.101l4.13 1.877a1.127 1.127 0 01-.932 2.051L4.04 12.29a1.126 1.126 0 01.466-2.152zm0 4.13c.166 0 .324.036.466.101l4.13 1.877a1.127 1.127 0 01-.932 2.051L4.04 16.42a1.126 1.126 0 01.466-2.151z"/></svg>