<svg xmlns="http://www.w3.org/2000/svg" width="37" height="32"><path fill="#95e1d3" d="M25.714 19.712h-8.143v2.142l1.714 1.715v.429H8.142v-.429l1.714-1.715v-2.142H1.713c-.71 0-1.286-.576-1.286-1.287V1.283c0-.711.576-1.286 1.286-1.286h24c.71 0 1.286.575 1.286 1.286v17.142c0 .711-.576 1.287-1.286 1.287zm-.429-17.999H2.143v14.571h23.142V1.713zm-14.142 6c.355 0 .676.144.909.376l.805.805 2.519-2.519a1.286 1.286 0 011.819 1.819l-3.429 3.429a1.286 1.286 0 01-1.818 0l-1.714-1.715a1.286 1.286 0 01.91-2.195z"/></svg>