<svg xmlns="http://www.w3.org/2000/svg" width="32" height="32"><path fill="#95e1d3" d="M22.904 24.03H1.126A1.126 1.126 0 010 22.904V1.126C0 .503.504 0 1.126 0h21.778c.622 0 1.126.504 1.126 1.126v21.778c0 .622-.505 1.126-1.126 1.126zM21.778 2.253H2.253v19.525h19.525V2.253zM4.881 3.379h4.13a1.126 1.126 0 110 2.252H5.632V9.01a1.126 1.126 0 01-2.252 0V3.378h1.502zm-1.502 11.64a1.127 1.127 0 112.252 0v3.379l3.379.001a1.126 1.126 0 110 2.252H3.378v-5.632zm11.64-11.64h5.632v5.632a1.126 1.126 0 01-2.252 0V5.632H15.02a1.126 1.126 0 010-2.252zm0 15.019v-.001h3.379v-3.379a1.127 1.127 0 112.252 0v5.632h-5.632a1.126 1.126 0 010-2.252z"/></svg>