<svg xmlns="http://www.w3.org/2000/svg" width="32" height="32"><path fill="#f38181" d="M20.964 23.827H3.232a2.955 2.955 0 01-2.955-2.956V3.14A2.955 2.955 0 013.232.184h17.732a2.955 2.955 0 012.955 2.956v17.731a2.955 2.955 0 01-2.955 2.956zM12.098 7.424a4.579 4.579 0 00-4.154 2.66h-.005l-.02.051a5.362 5.362 0 00-.118.296c-.018.049-.037.096-.053.144a4.166 4.166 0 00-.088.314c-.013.049-.028.098-.039.148a4.227 4.227 0 00-.056.34c-.006.046-.016.091-.021.139a4.58 4.58 0 004.554 5.07 4.58 4.58 0 004.554-5.07c-.006-.047-.015-.092-.021-.139a4.724 4.724 0 00-.056-.34c-.011-.05-.026-.099-.039-.148a4.166 4.166 0 00-.088-.314c-.016-.048-.035-.095-.053-.144a5.065 5.065 0 00-.118-.296l-.02-.051h-.005a4.579 4.579 0 00-4.154-2.66zm9.161-3.398a1.18 1.18 0 00-1.182-1.181h-2.364a1.18 1.18 0 00-1.182 1.181v2.365c0 .653.529 1.182 1.182 1.182h2.364c.653 0 1.182-.529 1.182-1.182V4.026zm0 6.058h-2.18a7.24 7.24 0 01-6.981 9.161 7.24 7.24 0 01-6.981-9.161H2.938v9.9c0 .654.529 1.183 1.182 1.183h15.958c.653 0 1.182-.529 1.182-1.183v-9.9z"/></svg>