<svg xmlns="http://www.w3.org/2000/svg" width="26" height="32"><path fill="#f38181" d="M8.36 15.565c-.193.769-.388 1.576-.589 2.364-.199.778-.374 1.566-.663 2.281-.479 1.183-1.088 2.326-1.887 3.252-.531.616-.418.37-.578.337-.122-.026-.132-.145-.156-.319-.13-.94-.042-2.027.006-3.084.055-1.204.308-2.205.544-3.206.447-1.906.874-3.774 1.325-5.693.03-.127.111-.338.083-.411a5.894 5.894 0 01-.396-1.571 5.01 5.01 0 01.128-1.794c.256-.977.843-1.842 1.749-2.159.576-.199 1.214-.109 1.602.122.399.239.673.616.801 1.151.137.568.036 1.248-.074 1.746-.247 1.126-.571 1.971-.865 3.057-.146.538-.311 1.092-.175 1.673.126.534.404.901.782 1.178.393.286.859.442 1.501.42 1.134-.04 1.922-.765 2.448-1.448.843-1.094 1.353-2.571 1.547-4.328.062-.567.108-1.218.065-1.86-.081-1.186-.452-2.14-1.041-2.879-.56-.705-1.354-1.264-2.32-1.58-.958-.312-2.283-.417-3.46-.215-2.141.367-3.65 1.583-4.539 3.263a6.543 6.543 0 00-.773 3.149c0 .971.239 1.722.626 2.309.123.186.303.339.423.551.171.301-.026.749-.11 1.075-.102.393-.113.935-.571.944-.19.004-.429-.135-.589-.224C1.999 13 1.267 11.788.967 10.218a8.232 8.232 0 010-2.99 8.49 8.49 0 01.865-2.384 8.532 8.532 0 013.194-3.291C6.057.943 7.219.516 8.634.31c.469-.068.955-.097 1.482-.122a8.911 8.911 0 013.995.748 8.165 8.165 0 012.752 1.982c.774.845 1.337 1.828 1.694 3.056.187.639.368 1.322.368 2.112 0 .792-.167 1.49-.284 2.187-.438 2.612-1.68 4.748-3.544 5.964a6.124 6.124 0 01-1.62.747c-.616.179-1.319.314-2.071.261a4.229 4.229 0 01-1.831-.533c-.499-.282-.918-.627-1.215-1.149z"/></svg>