<svg aria-hidden="true" style="position:absolute;width:0;height:0" xmlns="http://www.w3.org/2000/svg" overflow="hidden"><defs><symbol id="facebook" viewBox="0 0 16 32"><path fill="var(--color1, #f38181)" d="M11.164.184V3.99s-2.805-.28-3.508.795c-.384.587-.156 2.309-.19 3.544h3.721c-.314 1.444-.539 2.423-.771 3.674h-2.97v11.825H2.291V12.049H.098v-3.72h2.169c.111-2.721.152-5.416 1.504-6.788C5.289-.002 6.738.183 11.164.183z"/></symbol><symbol id="instagram" viewBox="0 0 32 32"><path fill="var(--color1, #f38181)" d="M20.964 23.827H3.232a2.955 2.955 0 01-2.955-2.956V3.14A2.955 2.955 0 013.232.184h17.732a2.955 2.955 0 012.955 2.956v17.731a2.955 2.955 0 01-2.955 2.956zM12.098 7.424a4.579 4.579 0 00-4.154 2.66h-.005l-.02.051a5.362 5.362 0 00-.118.296c-.018.049-.037.096-.053.144a4.166 4.166 0 00-.088.314c-.013.049-.028.098-.039.148a4.227 4.227 0 00-.056.34c-.006.046-.016.091-.021.139a4.58 4.58 0 004.554 5.07 4.58 4.58 0 004.554-5.07c-.006-.047-.015-.092-.021-.139a4.724 4.724 0 00-.056-.34c-.011-.05-.026-.099-.039-.148a4.166 4.166 0 00-.088-.314c-.016-.048-.035-.095-.053-.144a5.065 5.065 0 00-.118-.296l-.02-.051h-.005a4.579 4.579 0 00-4.154-2.66zm9.161-3.398a1.18 1.18 0 00-1.182-1.181h-2.364a1.18 1.18 0 00-1.182 1.181v2.365c0 .653.529 1.182 1.182 1.182h2.364c.653 0 1.182-.529 1.182-1.182V4.026zm0 6.058h-2.18a7.24 7.24 0 01-6.981 9.161 7.24 7.24 0 01-6.981-9.161H2.938v9.9c0 .654.529 1.183 1.182 1.183h15.958c.653 0 1.182-.529 1.182-1.183v-9.9z"/></symbol><symbol id="pinterest" viewBox="0 0 26 32"><path fill="var(--color1, #f38181)" d="M8.36 15.565c-.193.769-.388 1.576-.589 2.364-.199.778-.374 1.566-.663 2.281-.479 1.183-1.088 2.326-1.887 3.252-.531.616-.418.37-.578.337-.122-.026-.132-.145-.156-.319-.13-.94-.042-2.027.006-3.084.055-1.204.308-2.205.544-3.206.447-1.906.874-3.774 1.325-5.693.03-.127.111-.338.083-.411a5.894 5.894 0 01-.396-1.571 5.01 5.01 0 01.128-1.794c.256-.977.843-1.842 1.749-2.159.576-.199 1.214-.109 1.602.122.399.239.673.616.801 1.151.137.568.036 1.248-.074 1.746-.247 1.126-.571 1.971-.865 3.057-.146.538-.311 1.092-.175 1.673.126.534.404.901.782 1.178.393.286.859.442 1.501.42 1.134-.04 1.922-.765 2.448-1.448.843-1.094 1.353-2.571 1.547-4.328.062-.567.108-1.218.065-1.86-.081-1.186-.452-2.14-1.041-2.879-.56-.705-1.354-1.264-2.32-1.58-.958-.312-2.283-.417-3.46-.215-2.141.367-3.65 1.583-4.539 3.263a6.543 6.543 0 00-.773 3.149c0 .971.239 1.722.626 2.309.123.186.303.339.423.551.171.301-.026.749-.11 1.075-.102.393-.113.935-.571.944-.19.004-.429-.135-.589-.224C1.999 13 1.267 11.788.967 10.218a8.232 8.232 0 010-2.99 8.49 8.49 0 01.865-2.384 8.532 8.532 0 013.194-3.291C6.057.943 7.219.516 8.634.31c.469-.068.955-.097 1.482-.122a8.911 8.911 0 013.995.748 8.165 8.165 0 012.752 1.982c.774.845 1.337 1.828 1.694 3.056.187.639.368 1.322.368 2.112 0 .792-.167 1.49-.284 2.187-.438 2.612-1.68 4.748-3.544 5.964a6.124 6.124 0 01-1.62.747c-.616.179-1.319.314-2.071.261a4.229 4.229 0 01-1.831-.533c-.499-.282-.918-.627-1.215-1.149z"/></symbol><symbol id="twitter" viewBox="0 0 38 32"><path fill="var(--color1, #f38181)" d="M19.081.653c2.216-.039 3.396.768 4.523 1.794.957-.082 2.2-.616 2.932-.988l.711-.389c-.418 1.13-.985 2.014-1.857 2.687-.194.148-.386.35-.629.445v.014c1.242-.012 2.266-.573 3.239-.877v.014c-.511.812-1.203 1.636-1.94 2.227l-.893.709c.016 1.315-.02 2.57-.265 3.675-1.429 6.423-5.217 10.783-11.21 12.651-2.153.67-5.631.946-8.097.333-1.222-.303-2.327-.646-3.363-1.099a13.267 13.267 0 01-1.62-.836l-.502-.305c.556.016 1.207.17 1.828.069.563-.09 1.115-.066 1.634-.18 1.294-.284 2.444-.66 3.433-1.24.48-.281 1.209-.61 1.55-1.015-.643.011-1.226-.138-1.703-.306-1.851-.654-2.929-1.855-3.63-3.661.561.062 2.177.208 2.555-.111-.706-.039-1.385-.448-1.871-.752-1.489-.932-2.703-2.494-2.694-4.898l.586.278c.375.158.755.242 1.201.334.188.039.565.149.782.069h-.028c-.288-.334-.757-.558-1.047-.918-.956-1.186-1.85-3.014-1.285-5.19.144-.552.372-1.039.614-1.489l.028.013c.111.233.36.404.516.599.488.605 1.089 1.148 1.703 1.628 2.09 1.634 3.971 2.639 6.994 3.382.767.19 1.653.333 2.569.334-.257-.748-.174-1.961.027-2.686.51-1.824 1.616-3.137 3.239-3.842a6.954 6.954 0 011.27-.39l.698-.083z"/></symbol></defs></svg>