<svg xmlns="http://www.w3.org/2000/svg" width="33" height="32"><path fill="#95e1d3" d="M23.031 6.637A11.782 11.782 0 0016.855.461a4.378 4.378 0 012.719-.944c2.43 0 4.401 1.97 4.401 4.401 0 1.027-.354 1.97-.944 2.719zm-.18 4.868c0 2.886-1.133 5.501-2.969 7.447l1.52 1.519a1.11 1.11 0 11-1.572 1.571l-1.632-1.632a10.81 10.81 0 01-6.211 1.958c-2.307 0-4.441-.724-6.2-1.95l-1.621 1.621a1.125 1.125 0 01-1.59-1.589l1.507-1.507a10.817 10.817 0 01-2.96-7.437c0-6 4.864-10.864 10.864-10.864s10.864 4.864 10.864 10.864zM11.987 2.889a8.616 8.616 0 100 17.232 8.616 8.616 0 000-17.232zm4.496 9.74h-4.495c-.62 0-1.124-.503-1.124-1.124V5.511a1.124 1.124 0 012.248 0v4.869h3.371a1.125 1.125 0 010 2.249zM.964 6.788A4.47 4.47 0 010 4.012 4.494 4.494 0 017.272.481 12.03 12.03 0 00.964 6.788z"/></svg>