<svg xmlns="http://www.w3.org/2000/svg" width="38" height="32"><path fill="#f38181" d="M19.081.653c2.216-.039 3.396.768 4.523 1.794.957-.082 2.2-.616 2.932-.988l.711-.389c-.418 1.13-.985 2.014-1.857 2.687-.194.148-.386.35-.629.445v.014c1.242-.012 2.266-.573 3.239-.877v.014c-.511.812-1.203 1.636-1.94 2.227l-.893.709c.016 1.315-.02 2.57-.265 3.675-1.429 6.423-5.217 10.783-11.21 12.651-2.153.67-5.631.946-8.097.333-1.222-.303-2.327-.646-3.363-1.099a13.267 13.267 0 01-1.62-.836l-.502-.305c.556.016 1.207.17 1.828.069.563-.09 1.115-.066 1.634-.18 1.294-.284 2.444-.66 3.433-1.24.48-.281 1.209-.61 1.55-1.015-.643.011-1.226-.138-1.703-.306-1.851-.654-2.929-1.855-3.63-3.661.561.062 2.177.208 2.555-.111-.706-.039-1.385-.448-1.871-.752-1.489-.932-2.703-2.494-2.694-4.898l.586.278c.375.158.755.242 1.201.334.188.039.565.149.782.069h-.028c-.288-.334-.757-.558-1.047-.918-.956-1.186-1.85-3.014-1.285-5.19.144-.552.372-1.039.614-1.489l.028.013c.111.233.36.404.516.599.488.605 1.089 1.148 1.703 1.628 2.09 1.634 3.971 2.639 6.994 3.382.767.19 1.653.333 2.569.334-.257-.748-.174-1.961.027-2.686.51-1.824 1.616-3.137 3.239-3.842a6.954 6.954 0 011.27-.39l.698-.083z"/></svg>