<!-- Generated by IcoMoon.io -->
<svg version="1.1" xmlns="http://www.w3.org/2000/svg" width="32" height="32" viewBox="0 0 32 32">
<path fill="#95e1d3" d="M23.328 19.441l-10.867 4.497c-0.137 0.059-0.288 0.092-0.446 0.092s-0.309-0.033-0.446-0.092l-10.867-4.497c-0.412-0.167-0.702-0.571-0.702-1.043v-17.272c0-0.623 0.505-1.126 1.126-1.126 0.152 0 0.298 0.031 0.43 0.086h0.001l0.002 0.001c0.003 0.001 0.007 0.003 0.010 0.004l10.447 4.322 10.447-4.322c0.003-0.001 0.007-0.003 0.010-0.004l0.002-0.001c0.132-0.055 0.278-0.086 0.43-0.086 0.622 0 1.126 0.504 1.126 1.126v17.272c0 0.472-0.291 0.876-0.702 1.043zM10.889 6.385l-8.636-3.574v14.834l8.636 3.574v-14.834zM21.778 2.812l-8.636 3.574v14.834l8.636-3.574v-14.834zM14.928 7.986l4.13-1.877c0.142-0.065 0.3-0.101 0.466-0.101 0.622 0 1.126 0.504 1.126 1.126 0 0.456-0.271 0.848-0.66 1.025v0l-4.13 1.877c-0.143 0.065-0.3 0.101-0.466 0.101-0.622 0-1.126-0.505-1.126-1.126 0-0.456 0.271-0.849 0.66-1.026zM14.928 12.116v0l4.13-1.877c0.142-0.065 0.3-0.101 0.466-0.101 0.622 0 1.126 0.504 1.126 1.126 0 0.457-0.271 0.849-0.66 1.026l-4.13 1.877c-0.143 0.065-0.3 0.101-0.466 0.101-0.622 0-1.126-0.505-1.126-1.126 0-0.456 0.271-0.849 0.66-1.026zM14.928 16.246v0l4.13-1.877c0.142-0.065 0.3-0.101 0.466-0.101 0.622 0 1.126 0.504 1.126 1.126 0 0.456-0.271 0.848-0.66 1.025v0l-4.13 1.877c-0.143 0.065-0.3 0.101-0.466 0.101-0.622 0-1.126-0.505-1.126-1.126 0-0.456 0.271-0.849 0.66-1.026zM4.506 6.008c0.166 0 0.324 0.036 0.466 0.101v0l4.13 1.877c0.389 0.177 0.66 0.57 0.66 1.026 0 0.622-0.505 1.126-1.126 1.126-0.167 0-0.324-0.036-0.466-0.101v0l-4.13-1.877c-0.389-0.177-0.66-0.569-0.66-1.025 0-0.623 0.505-1.126 1.126-1.126zM4.506 10.138c0.166 0 0.324 0.036 0.466 0.101v0l4.13 1.877c0.389 0.177 0.66 0.57 0.66 1.026 0 0.622-0.505 1.126-1.126 1.126-0.167 0-0.324-0.037-0.466-0.101v0l-4.13-1.877c-0.389-0.177-0.66-0.569-0.66-1.026 0-0.622 0.505-1.126 1.126-1.126zM4.506 14.268c0.166 0 0.324 0.036 0.466 0.101v0l4.13 1.877c0.389 0.177 0.66 0.57 0.66 1.026 0 0.622-0.505 1.126-1.126 1.126-0.167 0-0.324-0.036-0.466-0.101v0l-4.13-1.877c-0.389-0.177-0.66-0.569-0.66-1.025 0-0.623 0.505-1.126 1.126-1.126z"></path>
</svg>
