<!-- Generated by IcoMoon.io -->
<svg version="1.1" xmlns="http://www.w3.org/2000/svg" width="26" height="32" viewBox="0 0 26 32">
<title>pinterest</title>
<path fill="#f38181" d="M8.36 15.565c-0.193 0.769-0.388 1.576-0.589 2.364-0.199 0.778-0.374 1.566-0.663 2.281-0.479 1.183-1.088 2.326-1.887 3.252-0.531 0.616-0.418 0.37-0.578 0.337-0.122-0.026-0.132-0.145-0.156-0.319-0.13-0.94-0.042-2.027 0.006-3.084 0.055-1.204 0.308-2.205 0.544-3.206 0.447-1.906 0.874-3.774 1.325-5.693 0.030-0.127 0.111-0.338 0.083-0.411-0.205-0.533-0.338-1.011-0.396-1.571-0.067-0.642-0.016-1.241 0.128-1.794 0.256-0.977 0.843-1.842 1.749-2.159 0.576-0.199 1.214-0.109 1.602 0.122 0.399 0.239 0.673 0.616 0.801 1.151 0.137 0.568 0.036 1.248-0.074 1.746-0.247 1.126-0.571 1.971-0.865 3.057-0.146 0.538-0.311 1.092-0.175 1.673 0.126 0.534 0.404 0.901 0.782 1.178 0.393 0.286 0.859 0.442 1.501 0.42 1.134-0.040 1.922-0.765 2.448-1.448 0.843-1.094 1.353-2.571 1.547-4.328 0.062-0.567 0.108-1.218 0.065-1.86-0.081-1.186-0.452-2.14-1.041-2.879-0.56-0.705-1.354-1.264-2.32-1.58-0.958-0.312-2.283-0.417-3.46-0.215-2.141 0.367-3.65 1.583-4.539 3.263-0.465 0.879-0.773 1.89-0.773 3.149 0 0.971 0.239 1.722 0.626 2.309 0.123 0.186 0.303 0.339 0.423 0.551 0.171 0.301-0.026 0.749-0.11 1.075-0.102 0.393-0.113 0.935-0.571 0.944-0.19 0.004-0.429-0.135-0.589-0.224-1.205-0.666-1.937-1.878-2.237-3.448-0.183-0.955-0.182-2.068 0-2.99 0.175-0.893 0.502-1.716 0.865-2.384 0.752-1.388 1.853-2.498 3.194-3.291 1.031-0.61 2.193-1.037 3.608-1.243 0.469-0.068 0.955-0.097 1.482-0.122 1.54-0.072 2.941 0.277 3.995 0.748 1.113 0.498 2.001 1.16 2.752 1.982 0.774 0.845 1.337 1.828 1.694 3.056 0.187 0.639 0.368 1.322 0.368 2.112 0 0.792-0.167 1.49-0.284 2.187-0.438 2.612-1.68 4.748-3.544 5.964-0.452 0.294-0.998 0.566-1.62 0.747-0.616 0.179-1.319 0.314-2.071 0.261-0.73-0.050-1.329-0.248-1.831-0.533-0.499-0.282-0.918-0.627-1.215-1.149z"></path>
</svg>
