<!-- Generated by IcoMoon.io -->
<svg version="1.1" xmlns="http://www.w3.org/2000/svg" width="37" height="32" viewBox="0 0 37 32">
<path fill="#95e1d3" d="M25.714 19.712h-8.143v2.142l1.714 1.715v0.429h-11.143v-0.429l1.714-1.715v-2.142h-8.143c-0.71 0-1.286-0.576-1.286-1.287v-17.142c0-0.711 0.576-1.286 1.286-1.286h24c0.71 0 1.286 0.575 1.286 1.286v17.142c0 0.711-0.576 1.287-1.286 1.287zM25.285 1.713h-23.142v14.571h23.142v-14.571zM11.143 7.713c0.355 0 0.676 0.144 0.909 0.376v0l0.805 0.805 2.519-2.519c0.233-0.233 0.555-0.376 0.909-0.376 0.71 0 1.286 0.575 1.286 1.286 0 0.355-0.144 0.676-0.376 0.909v0l-3.429 3.429c-0.233 0.232-0.555 0.376-0.909 0.376s-0.676-0.144-0.909-0.376v0l-1.714-1.715c-0.232-0.232-0.376-0.554-0.376-0.909 0-0.711 0.576-1.286 1.286-1.286z"></path>
</svg>
