<!-- Generated by IcoMoon.io -->
<svg version="1.1" xmlns="http://www.w3.org/2000/svg" width="32" height="32" viewBox="0 0 32 32">
<path fill="#95e1d3" d="M22.904 24.030h-21.778c-0.623 0-1.126-0.505-1.126-1.126v-21.778c0-0.623 0.504-1.126 1.126-1.126h21.778c0.622 0 1.126 0.504 1.126 1.126v21.778c0 0.622-0.505 1.126-1.126 1.126zM21.778 2.253h-19.525v19.525h19.525v-19.525zM4.881 3.379h4.13c0.622 0 1.126 0.504 1.126 1.126s-0.505 1.126-1.126 1.126v0h-3.379v3.379c0 0.622-0.505 1.126-1.126 1.126s-1.126-0.505-1.126-1.126v0-5.632h1.502zM3.379 15.019v0c0-0.623 0.505-1.127 1.126-1.127s1.126 0.505 1.126 1.127v0 3.379l3.379 0.001c0.622 0 1.126 0.504 1.126 1.126s-0.505 1.126-1.126 1.126v0h-5.632v-5.632zM15.019 3.379v0h5.632v5.632c0 0.622-0.505 1.126-1.126 1.126s-1.126-0.505-1.126-1.126v0-3.379h-3.379c-0.622 0-1.126-0.505-1.126-1.126s0.505-1.126 1.126-1.126zM15.019 18.398v-0.001h3.379v-3.379c0-0.623 0.505-1.127 1.126-1.127s1.126 0.505 1.126 1.127v0 5.632h-5.632c-0.622 0-1.126-0.505-1.126-1.126s0.505-1.126 1.126-1.126z"></path>
</svg>
