<!-- Generated by IcoMoon.io -->
<svg version="1.1" xmlns="http://www.w3.org/2000/svg" width="38" height="32" viewBox="0 0 38 32">
<title>twitter</title>
<path fill="#f38181" d="M19.081 0.653c2.216-0.039 3.396 0.768 4.523 1.794 0.957-0.082 2.2-0.616 2.932-0.988 0.236-0.129 0.474-0.259 0.711-0.389-0.418 1.13-0.985 2.014-1.857 2.687-0.194 0.148-0.386 0.35-0.629 0.445 0 0.004 0 0.010 0 0.014 1.242-0.012 2.266-0.573 3.239-0.877 0 0.004 0 0.010 0 0.014-0.511 0.812-1.203 1.636-1.94 2.227-0.297 0.236-0.596 0.473-0.893 0.709 0.016 1.315-0.020 2.57-0.265 3.675-1.429 6.423-5.217 10.783-11.21 12.651-2.153 0.67-5.631 0.946-8.097 0.333-1.222-0.303-2.327-0.646-3.363-1.099-0.576-0.252-1.11-0.524-1.62-0.836-0.168-0.101-0.334-0.204-0.502-0.305 0.556 0.016 1.207 0.17 1.828 0.069 0.563-0.090 1.115-0.066 1.634-0.18 1.294-0.284 2.444-0.66 3.433-1.24 0.48-0.281 1.209-0.61 1.55-1.015-0.643 0.011-1.226-0.138-1.703-0.306-1.851-0.654-2.929-1.855-3.63-3.661 0.561 0.062 2.177 0.208 2.555-0.111-0.706-0.039-1.385-0.448-1.871-0.752-1.489-0.932-2.703-2.494-2.694-4.898 0.196 0.093 0.391 0.185 0.586 0.278 0.375 0.158 0.755 0.242 1.201 0.334 0.188 0.039 0.565 0.149 0.782 0.069-0.010 0-0.019 0-0.028 0-0.288-0.334-0.757-0.558-1.047-0.918-0.956-1.186-1.85-3.014-1.285-5.19 0.144-0.552 0.372-1.039 0.614-1.489 0.010 0.004 0.019 0.009 0.028 0.013 0.111 0.233 0.36 0.404 0.516 0.599 0.488 0.605 1.089 1.148 1.703 1.628 2.090 1.634 3.971 2.639 6.994 3.382 0.767 0.19 1.653 0.333 2.569 0.334-0.257-0.748-0.174-1.961 0.027-2.686 0.51-1.824 1.616-3.137 3.239-3.842 0.388-0.168 0.818-0.291 1.27-0.39 0.233-0.027 0.465-0.056 0.698-0.083z"></path>
</svg>
